  0
SECTION
  2
HEADER
  9
$ACADVER
  1
AC1009
  9
$INSBASE
 10
0.0
 20
0.0
 30
0.0
  9
$EXTMIN
 10
2204.6950489372939046
 20
880.2756588963860622
 30
0.0
  9
$EXTMAX
 10
4464.8305690037941531
 20
1777.4515061624499594
 30
0.0
  9
$LIMMIN
 10
0.0
 20
0.0
  9
$LIMMAX
 10
420.0
 20
297.0
  9
$ORTHOMODE
 70
     0
  9
$REGENMODE
 70
     1
  9
$FILLMODE
 70
     1
  9
$QTEXTMODE
 70
     0
  9
$MIRRTEXT
 70
     0
  9
$DRAGMODE
 70
     2
  9
$LTSCALE
 40
1.0
  9
$OSMODE
 70
    37
  9
$ATTMODE
 70
     1
  9
$TEXTSIZE
 40
2.5
  9
$TRACEWID
 40
1.0
  9
$TEXTSTYLE
  7
STANDARD
  9
$CLAYER
  8
0
  9
$CELTYPE
  6
BYLAYER
  9
$CECOLOR
 62
   256
  9
$DIMSCALE
 40
1.0
  9
$DIMASZ
 40
2.5
  9
$DIMEXO
 40
0.625
  9
$DIMDLI
 40
3.75
  9
$DIMRND
 40
0.0
  9
$DIMDLE
 40
0.0
  9
$DIMEXE
 40
1.25
  9
$DIMTP
 40
0.0
  9
$DIMTM
 40
0.0
  9
$DIMTXT
 40
2.5
  9
$DIMCEN
 40
2.5
  9
$DIMTSZ
 40
0.0
  9
$DIMTOL
 70
     0
  9
$DIMLIM
 70
     0
  9
$DIMTIH
 70
     0
  9
$DIMTOH
 70
     0
  9
$DIMSE1
 70
     0
  9
$DIMSE2
 70
     0
  9
$DIMTAD
 70
     1
  9
$DIMZIN
 70
     8
  9
$DIMBLK
  1

  9
$DIMASO
 70
     1
  9
$DIMSHO
 70
     1
  9
$DIMPOST
  1

  9
$DIMAPOST
  1

  9
$DIMALT
 70
     0
  9
$DIMALTD
 70
     3
  9
$DIMALTF
 40
0.03937007874016
  9
$DIMLFAC
 40
1.0
  9
$DIMTOFL
 70
     1
  9
$DIMTVP
 40
0.0
  9
$DIMTIX
 70
     0
  9
$DIMSOXD
 70
     0
  9
$DIMSAH
 70
     0
  9
$DIMBLK1
  1

  9
$DIMBLK2
  1

  9
$DIMSTYLE
  2
ISO-25
  9
$DIMCLRD
 70
     0
  9
$DIMCLRE
 70
     0
  9
$DIMCLRT
 70
     0
  9
$DIMTFAC
 40
1.0
  9
$DIMGAP
 40
0.625
  9
$LUNITS
 70
     2
  9
$LUPREC
 70
     4
  9
$SKETCHINC
 40
1.0
  9
$FILLETRAD
 40
0.0
  9
$AUNITS
 70
     0
  9
$AUPREC
 70
     0
  9
$MENU
  1
.
  9
$ELEVATION
 40
0.0
  9
$PELEVATION
 40
0.0
  9
$THICKNESS
 40
0.0
  9
$LIMCHECK
 70
     0
  9
$BLIPMODE
 70
     0
  9
$CHAMFERA
 40
0.0
  9
$CHAMFERB
 40
0.0
  9
$SKPOLY
 70
     0
  9
$TDCREATE
 40
2459654.9325925931334496
  9
$TDUPDATE
 40
2459655.0168634261935949
  9
$TDINDWG
 40
0.0842708333
  9
$TDUSRTIMER
 40
0.0842708333
  9
$USRTIMER
 70
     1
  9
$ANGBASE
 50
0.0
  9
$ANGDIR
 70
     0
  9
$PDMODE
 70
     0
  9
$PDSIZE
 40
0.0
  9
$PLINEWID
 40
0.0
  9
$COORDS
 70
     1
  9
$SPLFRAME
 70
     0
  9
$SPLINETYPE
 70
     6
  9
$SPLINESEGS
 70
     8
  9
$ATTDIA
 70
     1
  9
$ATTREQ
 70
     1
  9
$HANDLING
 70
     1
  9
$HANDSEED
  5
4CB
  9
$SURFTAB1
 70
     6
  9
$SURFTAB2
 70
     6
  9
$SURFTYPE
 70
     6
  9
$SURFU
 70
     6
  9
$SURFV
 70
     6
  9
$UCSNAME
  2

  9
$UCSORG
 10
0.0
 20
0.0
 30
0.0
  9
$UCSXDIR
 10
1.0
 20
0.0
 30
0.0
  9
$UCSYDIR
 10
0.0
 20
1.0
 30
0.0
  9
$PUCSNAME
  2

  9
$PUCSORG
 10
0.0
 20
0.0
 30
0.0
  9
$PUCSXDIR
 10
1.0
 20
0.0
 30
0.0
  9
$PUCSYDIR
 10
0.0
 20
1.0
 30
0.0
  9
$USERI1
 70
     0
  9
$USERI2
 70
     0
  9
$USERI3
 70
     0
  9
$USERI4
 70
     0
  9
$USERI5
 70
     0
  9
$USERR1
 40
0.0
  9
$USERR2
 40
0.0
  9
$USERR3
 40
0.0
  9
$USERR4
 40
0.0
  9
$USERR5
 40
0.0
  9
$WORLDVIEW
 70
     1
  9
$SHADEDGE
 70
     3
  9
$SHADEDIF
 70
    70
  9
$TILEMODE
 70
     1
  9
$MAXACTVP
 70
    64
  9
$PLIMCHECK
 70
     0
  9
$PEXTMIN
 10
0.0
 20
0.0
 30
0.0
  9
$PEXTMAX
 10
0.0
 20
0.0
 30
0.0
  9
$PLIMMIN
 10
0.0
 20
0.0
  9
$PLIMMAX
 10
12.0
 20
9.0
  9
$UNITMODE
 70
     0
  9
$VISRETAIN
 70
     1
  9
$PLINEGEN
 70
     0
  9
$PSLTSCALE
 70
     1
  0
ENDSEC
  0
SECTION
  2
TABLES
  0
TABLE
  2
VPORT
 70
     1
  0
VPORT
  2
*ACTIVE
 70
     0
 10
0.0
 20
0.0
 11
1.0
 21
1.0
 12
-1114.985964178220911
 22
-438.6323521743174183
 13
0.0
 23
0.0
 14
10.0
 24
10.0
 15
10.0
 25
10.0
 16
-0.000000000001819
 26
0.0
 36
7297.0449190039698806
 17
3334.7630615234379547
 27
1328.8666687011721024
 37
0.0
 40
57.0863160493690884
 41
2.2753968253968249
 42
50.0
 43
0.0
 44
0.0
 50
0.0
 51
0.0
 71
     0
 72
  1000
 73
     1
 74
     3
 75
     0
 76
     1
 77
     0
 78
     0
  0
ENDTAB
  0
TABLE
  2
LTYPE
 70
     2
  0
LTYPE
  2
CONTINUOUS
 70
     0
  3
Solid line
 72
    65
 73
     0
 40
0.0
  0
ENDTAB
  0
TABLE
  2
LAYER
 70
     1
  0
LAYER
  2
0
 70
     0
 62
     7
  6
CONTINUOUS
  0
ENDTAB
  0
TABLE
  2
STYLE
 70
     2
  0
STYLE
  2
STANDARD
 70
     0
 40
0.0
 41
1.0
 50
0.0
 71
     0
 42
2.5
  3
txt
  4

  0
STYLE
  2
ANNOTATIVE
 70
     0
 40
0.0
 41
1.0
 50
0.0
 71
     0
 42
2.5
  3
txt
  4

  0
ENDTAB
  0
TABLE
  2
VIEW
 70
     0
  0
ENDTAB
  0
TABLE
  2
UCS
 70
     0
  0
ENDTAB
  0
TABLE
  2
APPID
 70
    10
  0
APPID
  2
ACAD
 70
     0
  0
APPID
  2
ACAD_PSEXT
 70
     0
  0
APPID
  2
ACADANNOPO
 70
     0
  0
APPID
  2
ACADANNOTATIVE
 70
     0
  0
APPID
  2
ACAD_DSTYLE_DIMJAG
 70
     0
  0
APPID
  2
ACAD_DSTYLE_DIMTALN
 70
     0
  0
APPID
  2
ACAD_MLEADERVER
 70
     0
  0
APPID
  2
ACAD_NAV_VCDISPLAY
 70
     0
  0
APPID
  2
ACAD_EXEMPT_FROM_CAD_STANDARDS
 70
     0
  0
APPID
  2
ACAD_TC
 70
     0
  0
ENDTAB
  0
TABLE
  2
DIMSTYLE
 70
     4
  0
DIMSTYLE
  2
STANDARD
 70
     0
  3

  4

  5

  6

  7

 40
1.0
 41
0.18
 42
0.0625
 43
0.38
 44
0.18
 45
0.0
 46
0.0
 47
0.0
 48
0.0
140
0.18
141
0.09
142
0.0
143
25.3999999999999986
144
1.0
145
0.0
146
1.0
147
0.09
 71
     0
 72
     0
 73
     1
 74
     1
 75
     0
 76
     0
 77
     0
 78
     0
170
     0
171
     2
172
     0
173
     0
174
     0
175
     0
176
     0
177
     0
178
     0
  0
DIMSTYLE
  2
ANNOTATIVE
 70
     0
  3

  4

  5

  6

  7

 40
0.0
 41
2.5
 42
0.625
 43
3.75
 44
1.25
 45
0.0
 46
0.0
 47
0.0
 48
0.0
140
2.5
141
2.5
142
0.0
143
0.03937007874016
144
1.0
145
0.0
146
1.0
147
0.625
 71
     0
 72
     0
 73
     0
 74
     0
 75
     0
 76
     0
 77
     1
 78
     8
170
     0
171
     3
172
     1
173
     0
174
     0
175
     0
176
     0
177
     0
178
     0
  0
DIMSTYLE
  2
ISO-25
 70
     0
  3

  4

  5

  6

  7

 40
1.0
 41
2.5
 42
0.625
 43
3.75
 44
1.25
 45
0.0
 46
0.0
 47
0.0
 48
0.0
140
2.5
141
2.5
142
0.0
143
0.03937007874016
144
1.0
145
0.0
146
1.0
147
0.625
 71
     0
 72
     0
 73
     0
 74
     0
 75
     0
 76
     0
 77
     1
 78
     8
170
     0
171
     3
172
     1
173
     0
174
     0
175
     0
176
     0
177
     0
178
     0
  0
ENDTAB
  0
ENDSEC
  0
SECTION
  2
BLOCKS
  0
BLOCK
  8
0
  2
$MODEL_SPACE
 70
     0
 10
0.0
 20
0.0
 30
0.0
  3
$MODEL_SPACE
  1

  0
ENDBLK
  5
21
  8
0
  0
BLOCK
 67
     1
  8
0
  2
$PAPER_SPACE
 70
     0
 10
0.0
 20
0.0
 30
0.0
  3
$PAPER_SPACE
  1

  0
ENDBLK
  5
D5
 67
     1
  8
0
  0
ENDSEC
  0
SECTION
  2
ENTITIES
  0
ARC
  5
2B2
  8
0
 10
2219.5221772998688721
 20
896.5190384288210907
 30
0.0
 40
10.3488230060633608
 50
14.54214194793758
 51
28.2056262352640701
  0
ARC
  5
2B5
  8
0
 10
2219.2274001394248444
 20
901.0259458991318979
 30
0.0
 40
15.9742676238526702
 50
260.8999530433114842
 51
283.8753559236686215
  0
LINE
  5
2B9
  8
0
 10
2213.8100596287281405
 20
885.9983164150903576
 30
0.0
 11
2212.9376640588870941
 21
881.4377500369483869
 31
0.0
  0
ARC
  5
2BB
  8
0
 10
2214.8101444748122049
 20
882.3652706993998436
 30
0.0
 40
2.0896118030137849
 50
206.3512072751206006
 51
305.123168750136017
  0
LINE
  5
2C3
  8
0
 10
2225.7853142996541465
 20
886.4598555525240045
 30
0.0
 11
2227.0853979124722173
 21
881.6092799779438565
 31
0.0
  0
ARC
  5
2C4
  8
0
 10
2225.1392663785168224
 20
882.5696879483130033
 30
0.0
 40
2.1702099937565849
 50
236.0560469474814056
 51
333.7338488467436832
  0
LINE
  5
2C5
  8
0
 10
2223.0581971724400319
 20
885.5178118975728694
 30
0.0
 11
2223.9274609014669295
 21
880.7693160692857646
 31
0.0
  0
LINE
  5
2C6
  8
0
 10
2216.7009279193139264
 20
885.2527355651676544
 30
0.0
 11
2216.0123734568278451
 21
880.6561413999917249
 31
0.0
  0
ARC
  5
2C7
  8
0
 10
2224.1502294408210219
 20
896.6755591997921329
 30
0.0
 40
14.8634661242381796
 50
185.3312039054299873
 51
225.918819243762897
  0
ARC
  5
2CA
  8
0
 10
2214.5649447368491565
 20
896.6732692844783514
 30
0.0
 40
15.1726897149446103
 50
317.6897691727075994
 51
337.0795127086672096
  0
POLYLINE
  5
2CC
  8
0
 10
2224.0904422352477923
 20
901.4982337642741186
 30
0.0
 66
     1
 70
     8
  0
VERTEX
  8
0
  5
345
 10
2224.09
 20
901.498
 30
0.00000
  70
    32
  0
VERTEX
  8
0
  5
346
 10
2223.99
 20
901.541
 30
0.00000
  70
    32
  0
VERTEX
  8
0
  5
347
 10
2223.89
 20
901.582
 30
0.00000
  70
    32
  0
VERTEX
  8
0
  5
348
 10
2223.79
 20
901.623
 30
0.00000
  70
    32
  0
VERTEX
  8
0
  5
349
 10
2223.69
 20
901.662
 30
0.00000
  70
    32
  0
VERTEX
  8
0
  5
34A
 10
2223.58
 20
901.701
 30
0.00000
  70
    32
  0
VERTEX
  8
0
  5
34B
 10
2223.48
 20
901.738
 30
0.00000
  70
    32
  0
VERTEX
  8
0
  5
34C
 10
2223.37
 20
901.775
 30
0.00000
  70
    32
  0
VERTEX
  8
0
  5
34D
 10
2223.27
 20
901.810
 30
0.00000
  70
    32
  0
VERTEX
  8
0
  5
34E
 10
2223.16
 20
901.844
 30
0.00000
  70
    32
  0
VERTEX
  8
0
  5
34F
 10
2223.05
 20
901.877
 30
0.00000
  70
    32
  0
VERTEX
  8
0
  5
350
 10
2222.95
 20
901.909
 30
0.00000
  70
    32
  0
VERTEX
  8
0
  5
351
 10
2222.84
 20
901.940
 30
0.00000
  70
    32
  0
VERTEX
  8
0
  5
352
 10
2222.73
 20
901.970
 30
0.00000
  70
    32
  0
VERTEX
  8
0
  5
353
 10
2222.62
 20
901.999
 30
0.00000
  70
    32
  0
VERTEX
  8
0
  5
354
 10
2222.51
 20
902.027
 30
0.00000
  70
    32
  0
VERTEX
  8
0
  5
355
 10
2222.40
 20
902.054
 30
0.00000
  70
    32
  0
VERTEX
  8
0
  5
356
 10
2222.28
 20
902.079
 30
0.00000
  70
    32
  0
VERTEX
  8
0
  5
357
 10
2222.17
 20
902.103
 30
0.00000
  70
    32
  0
VERTEX
  8
0
  5
358
 10
2222.06
 20
902.127
 30
0.00000
  70
    32
  0
VERTEX
  8
0
  5
359
 10
2221.95
 20
902.149
 30
0.00000
  70
    32
  0
VERTEX
  8
0
  5
35A
 10
2221.83
 20
902.170
 30
0.00000
  70
    32
  0
VERTEX
  8
0
  5
35B
 10
2221.72
 20
902.190
 30
0.00000
  70
    32
  0
VERTEX
  8
0
  5
35C
 10
2221.60
 20
902.208
 30
0.00000
  70
    32
  0
VERTEX
  8
0
  5
35D
 10
2221.49
 20
902.226
 30
0.00000
  70
    32
  0
VERTEX
  8
0
  5
35E
 10
2221.37
 20
902.242
 30
0.00000
  70
    32
  0
VERTEX
  8
0
  5
35F
 10
2221.26
 20
902.257
 30
0.00000
  70
    32
  0
VERTEX
  8
0
  5
360
 10
2221.14
 20
902.271
 30
0.00000
  70
    32
  0
VERTEX
  8
0
  5
361
 10
2221.02
 20
902.284
 30
0.00000
  70
    32
  0
VERTEX
  8
0
  5
362
 10
2220.91
 20
902.296
 30
0.00000
  70
    32
  0
VERTEX
  8
0
  5
363
 10
2220.79
 20
902.307
 30
0.00000
  70
    32
  0
VERTEX
  8
0
  5
364
 10
2220.67
 20
902.316
 30
0.00000
  70
    32
  0
VERTEX
  8
0
  5
365
 10
2220.56
 20
902.324
 30
0.00000
  70
    32
  0
VERTEX
  8
0
  5
366
 10
2220.44
 20
902.331
 30
0.00000
  70
    32
  0
VERTEX
  8
0
  5
367
 10
2220.32
 20
902.337
 30
0.00000
  70
    32
  0
VERTEX
  8
0
  5
368
 10
2220.20
 20
902.342
 30
0.00000
  70
    32
  0
VERTEX
  8
0
  5
369
 10
2220.09
 20
902.345
 30
0.00000
  70
    32
  0
VERTEX
  8
0
  5
36A
 10
2219.97
 20
902.347
 30
0.00000
  70
    32
  0
VERTEX
  8
0
  5
36B
 10
2219.85
 20
902.348
 30
0.00000
  70
    32
  0
VERTEX
  8
0
  5
36C
 10
2219.73
 20
902.348
 30
0.00000
  70
    32
  0
VERTEX
  8
0
  5
36D
 10
2219.61
 20
902.347
 30
0.00000
  70
    32
  0
VERTEX
  8
0
  5
36E
 10
2219.50
 20
902.345
 30
0.00000
  70
    32
  0
VERTEX
  8
0
  5
36F
 10
2219.38
 20
902.341
 30
0.00000
  70
    32
  0
VERTEX
  8
0
  5
370
 10
2219.26
 20
902.336
 30
0.00000
  70
    32
  0
VERTEX
  8
0
  5
371
 10
2219.14
 20
902.330
 30
0.00000
  70
    32
  0
VERTEX
  8
0
  5
372
 10
2219.02
 20
902.323
 30
0.00000
  70
    32
  0
VERTEX
  8
0
  5
373
 10
2218.91
 20
902.315
 30
0.00000
  70
    32
  0
VERTEX
  8
0
  5
374
 10
2218.79
 20
902.305
 30
0.00000
  70
    32
  0
VERTEX
  8
0
  5
375
 10
2218.67
 20
902.295
 30
0.00000
  70
    32
  0
VERTEX
  8
0
  5
376
 10
2218.56
 20
902.283
 30
0.00000
  70
    32
  0
VERTEX
  8
0
  5
377
 10
2218.44
 20
902.270
 30
0.00000
  70
    32
  0
VERTEX
  8
0
  5
378
 10
2218.32
 20
902.256
 30
0.00000
  70
    32
  0
VERTEX
  8
0
  5
379
 10
2218.21
 20
902.240
 30
0.00000
  70
    32
  0
VERTEX
  8
0
  5
37A
 10
2218.09
 20
902.224
 30
0.00000
  70
    32
  0
VERTEX
  8
0
  5
37B
 10
2217.98
 20
902.206
 30
0.00000
  70
    32
  0
VERTEX
  8
0
  5
37C
 10
2217.86
 20
902.187
 30
0.00000
  70
    32
  0
VERTEX
  8
0
  5
37D
 10
2217.75
 20
902.167
 30
0.00000
  70
    32
  0
VERTEX
  8
0
  5
37E
 10
2217.64
 20
902.146
 30
0.00000
  70
    32
  0
VERTEX
  8
0
  5
37F
 10
2217.52
 20
902.124
 30
0.00000
  70
    32
  0
VERTEX
  8
0
  5
380
 10
2217.41
 20
902.101
 30
0.00000
  70
    32
  0
VERTEX
  8
0
  5
381
 10
2217.30
 20
902.076
 30
0.00000
  70
    32
  0
VERTEX
  8
0
  5
382
 10
2217.19
 20
902.050
 30
0.00000
  70
    32
  0
VERTEX
  8
0
  5
383
 10
2217.07
 20
902.024
 30
0.00000
  70
    32
  0
VERTEX
  8
0
  5
384
 10
2216.96
 20
901.996
 30
0.00000
  70
    32
  0
VERTEX
  8
0
  5
385
 10
2216.85
 20
901.967
 30
0.00000
  70
    32
  0
VERTEX
  8
0
  5
386
 10
2216.74
 20
901.937
 30
0.00000
  70
    32
  0
VERTEX
  8
0
  5
387
 10
2216.64
 20
901.906
 30
0.00000
  70
    32
  0
VERTEX
  8
0
  5
388
 10
2216.53
 20
901.873
 30
0.00000
  70
    32
  0
VERTEX
  8
0
  5
389
 10
2216.42
 20
901.840
 30
0.00000
  70
    32
  0
VERTEX
  8
0
  5
38A
 10
2216.31
 20
901.806
 30
0.00000
  70
    32
  0
VERTEX
  8
0
  5
38B
 10
2216.21
 20
901.770
 30
0.00000
  70
    32
  0
VERTEX
  8
0
  5
38C
 10
2216.10
 20
901.734
 30
0.00000
  70
    32
  0
VERTEX
  8
0
  5
38D
 10
2216.00
 20
901.696
 30
0.00000
  70
    32
  0
VERTEX
  8
0
  5
38E
 10
2215.90
 20
901.658
 30
0.00000
  70
    32
  0
VERTEX
  8
0
  5
38F
 10
2215.79
 20
901.618
 30
0.00000
  70
    32
  0
VERTEX
  8
0
  5
390
 10
2215.69
 20
901.577
 30
0.00000
  70
    32
  0
VERTEX
  8
0
  5
391
 10
2215.59
 20
901.536
 30
0.00000
  70
    32
  0
VERTEX
  8
0
  5
392
 10
2215.49
 20
901.493
 30
0.00000
  70
    32
  0
VERTEX
  8
0
  5
393
 10
2215.39
 20
901.449
 30
0.00000
  70
    32
  0
VERTEX
  8
0
  5
394
 10
2215.30
 20
901.405
 30
0.00000
  70
    32
  0
VERTEX
  8
0
  5
395
 10
2215.20
 20
901.359
 30
0.00000
  70
    32
  0
VERTEX
  8
0
  5
396
 10
2215.10
 20
901.313
 30
0.00000
  70
    32
  0
VERTEX
  8
0
  5
397
 10
2215.01
 20
901.265
 30
0.00000
  70
    32
  0
VERTEX
  8
0
  5
398
 10
2214.92
 20
901.217
 30
0.00000
  70
    32
  0
VERTEX
  8
0
  5
399
 10
2214.82
 20
901.167
 30
0.00000
  70
    32
  0
VERTEX
  8
0
  5
39A
 10
2214.73
 20
901.117
 30
0.00000
  70
    32
  0
VERTEX
  8
0
  5
39B
 10
2214.64
 20
901.066
 30
0.00000
  70
    32
  0
VERTEX
  8
0
  5
39C
 10
2214.55
 20
901.014
 30
0.00000
  70
    32
  0
VERTEX
  8
0
  5
39D
 10
2214.47
 20
900.961
 30
0.00000
  70
    32
  0
VERTEX
  8
0
  5
39E
 10
2214.38
 20
900.907
 30
0.00000
  70
    32
  0
VERTEX
  8
0
  5
39F
 10
2214.29
 20
900.852
 30
0.00000
  70
    32
  0
VERTEX
  8
0
  5
3A0
 10
2214.21
 20
900.796
 30
0.00000
  70
    32
  0
VERTEX
  8
0
  5
3A1
 10
2214.13
 20
900.740
 30
0.00000
  70
    32
  0
VERTEX
  8
0
  5
3A2
 10
2214.04
 20
900.683
 30
0.00000
  70
    32
  0
VERTEX
  8
0
  5
3A3
 10
2213.96
 20
900.624
 30
0.00000
  70
    32
  0
VERTEX
  8
0
  5
3A4
 10
2213.88
 20
900.566
 30
0.00000
  70
    32
  0
VERTEX
  8
0
  5
3A5
 10
2213.81
 20
900.506
 30
0.00000
  70
    32
  0
VERTEX
  8
0
  5
3A6
 10
2213.73
 20
900.445
 30
0.00000
  70
    32
  0
VERTEX
  8
0
  5
3A7
 10
2213.65
 20
900.384
 30
0.00000
  70
    32
  0
VERTEX
  8
0
  5
3A8
 10
2213.58
 20
900.322
 30
0.00000
  70
    32
  0
VERTEX
  8
0
  5
3A9
 10
2213.51
 20
900.260
 30
0.00000
  70
    32
  0
VERTEX
  8
0
  5
3AA
 10
2213.44
 20
900.196
 30
0.00000
  70
    32
  0
VERTEX
  8
0
  5
3AB
 10
2213.37
 20
900.132
 30
0.00000
  70
    32
  0
VERTEX
  8
0
  5
3AC
 10
2213.30
 20
900.067
 30
0.00000
  70
    32
  0
VERTEX
  8
0
  5
3AD
 10
2213.23
 20
900.002
 30
0.00000
  70
    32
  0
VERTEX
  8
0
  5
3AE
 10
2213.17
 20
899.936
 30
0.00000
  70
    32
  0
VERTEX
  8
0
  5
3AF
 10
2213.10
 20
899.869
 30
0.00000
  70
    32
  0
VERTEX
  8
0
  5
3B0
 10
2213.04
 20
899.801
 30
0.00000
  70
    32
  0
VERTEX
  8
0
  5
3B1
 10
2212.98
 20
899.733
 30
0.00000
  70
    32
  0
VERTEX
  8
0
  5
3B2
 10
2212.92
 20
899.665
 30
0.00000
  70
    32
  0
VERTEX
  8
0
  5
3B3
 10
2212.86
 20
899.595
 30
0.00000
  70
    32
  0
VERTEX
  8
0
  5
3B4
 10
2212.80
 20
899.526
 30
0.00000
  70
    32
  0
VERTEX
  8
0
  5
3B5
 10
2212.75
 20
899.455
 30
0.00000
  70
    32
  0
VERTEX
  8
0
  5
3B6
 10
2212.70
 20
899.384
 30
0.00000
  70
    32
  0
VERTEX
  8
0
  5
3B7
 10
2212.64
 20
899.313
 30
0.00000
  70
    32
  0
VERTEX
  8
0
  5
3B8
 10
2212.59
 20
899.241
 30
0.00000
  70
    32
  0
VERTEX
  8
0
  5
3B9
 10
2212.54
 20
899.168
 30
0.00000
  70
    32
  0
VERTEX
  8
0
  5
3BA
 10
2212.50
 20
899.095
 30
0.00000
  70
    32
  0
VERTEX
  8
0
  5
3BB
 10
2212.45
 20
899.022
 30
0.00000
  70
    32
  0
VERTEX
  8
0
  5
3BC
 10
2212.41
 20
898.948
 30
0.00000
  70
    32
  0
VERTEX
  8
0
  5
3BD
 10
2212.37
 20
898.874
 30
0.00000
  70
    32
  0
VERTEX
  8
0
  5
3BE
 10
2212.33
 20
898.799
 30
0.00000
  70
    32
  0
VERTEX
  8
0
  5
3BF
 10
2212.29
 20
898.724
 30
0.00000
  70
    32
  0
VERTEX
  8
0
  5
3C0
 10
2212.25
 20
898.649
 30
0.00000
  70
    32
  0
VERTEX
  8
0
  5
3C1
 10
2212.21
 20
898.573
 30
0.00000
  70
    32
  0
VERTEX
  8
0
  5
3C2
 10
2212.18
 20
898.497
 30
0.00000
  70
    32
  0
VERTEX
  8
0
  5
3C3
 10
2212.15
 20
898.420
 30
0.00000
  70
    32
  0
VERTEX
  8
0
  5
3C4
 10
2212.12
 20
898.343
 30
0.00000
  70
    32
  0
VERTEX
  8
0
  5
3C5
 10
2212.09
 20
898.266
 30
0.00000
  70
    32
  0
SEQEND
  8
0
  5
3C6
  0
ARC
  5
2CD
  8
0
 10
2216.478547729841921
 20
897.1231629075397223
 30
0.0
 40
1.900527957756464
 50
165.823935922273904
 51
13.3494025628690896
  0
ARC
  5
2CF
  8
0
 10
2223.5215501787588437
 20
896.9613267914548942
 30
0.0
 40
1.9583520072442999
 50
162.8741410355758887
 51
142.1005840787292982
  0
LINE
  5
2D0
  8
0
 10
2209.4598339459689669
 20
898.9371748681205645
 30
0.0
 11
2206.3456058833280622
 21
900.5551013446114439
 31
0.0
  0
LINE
  5
2D1
  8
0
 10
2209.3510590370251521
 20
895.2945521086451208
 30
0.0
 11
2204.8309054918117909
 21
897.5270469469555792
 31
0.0
  0
ARC
  5
2D2
  8
0
 10
2207.0418715594692003
 20
898.3139430440490969
 30
0.0
 40
2.3468226221749071
 50
107.2585692629325962
 51
199.5909495312284037
  0
LINE
  5
2D3
  8
0
 10
2233.8794950179340049
 20
891.7737434877619762
 30
0.0
 11
2229.4326813823017801
 21
893.6465680723617879
 31
0.0
  0
LINE
  5
2D4
  8
0
 10
4464.8305690037941531
 20
1776.0446410704719256
 30
0.0
 11
4460.6612094441506997
 21
1777.4515061624499594
 31
0.0
  0
LINE
  5
2D6
  8
0
 10
2228.5396930542478913
 20
890.7642149903191466
 30
0.0
 11
2233.0379948331810738
 21
888.5438188228406489
 31
0.0
  0
ARC
  5
2D7
  8
0
 10
2231.0696627887359682
 20
890.7812145765384457
 30
0.0
 40
2.9799783213732192
 50
311.3394601336345886
 51
19.4549640588399413
  0
ARC
  5
2D8
  8
0
 10
2214.5649447368491565
 20
896.6732692844783514
 30
0.0
 40
15.1726897149446103
 50
348.4932429897630186
 51
9.2705805887946102
  0
ARC
  5
2DB
  8
0
 10
2213.7508084525088634
 20
905.6355037833618553
 30
0.0
 40
1.643250958067936
 50
12.5213381668755197
 51
232.1520821467221936
  0
ARC
  5
2DC
  8
0
 10
2224.8249521927641581
 20
905.8037288117437811
 30
0.0
 40
1.803903332165391
 50
314.5028086761963095
 51
166.0331339283962961
  0
ARC
  5
2DD
  8
0
 10
2219.5221772998688721
 20
896.5190384288210907
 30
0.0
 40
10.3488230060633608
 50
130.9279697310531958
 51
166.4871790596450865
  0
ARC
  5
2DE
  8
0
 10
2219.5221772998688721
 20
896.5190384288210907
 30
0.0
 40
10.3488230060633608
 50
69.9251732402729402
 51
113.7454505825438957
  0
LINE
  5
2DF
  8
0
 10
2228.3855449099210091
 20
901.8612151593220005
 30
0.0
 11
2224.0904422352468828
 21
901.4982337642744596
 31
0.0
  0
LINE
  5
2E0
  8
0
 10
2228.6421504820959854
 20
901.4102782273060939
 30
0.0
 11
2224.9213412040999174
 21
901.0839714674762035
 31
0.0
  0
ARC
  5
2E1
  8
0
 10
2219.5221772998688721
 20
896.5190384288210907
 30
0.0
 40
10.3488230060633608
 50
34.8295164334310172
 51
50.6107693643249732
  0
LINE
  5
2E2
  8
0
 10
2212.0891547776827792
 20
898.2661002367726724
 30
0.0
 11
2214.9384494615142103
 21
898.23676240561133
 31
0.0
  0
LINE
  5
2E3
  8
0
 10
2211.9153625873550482
 20
897.6082329204931511
 30
0.0
 11
2214.6358951339570922
 21
897.5886067055324702
 31
0.0
  0
POLYLINE
  5
2E4
  8
0
 10
2211.9153625873545934
 20
897.6082329204931511
 30
0.0
 66
     1
 70
     8
  0
VERTEX
  8
0
  5
3C7
 10
2211.92
 20
897.608
 30
0.00000
  70
    32
  0
VERTEX
  8
0
  5
3C8
 10
2211.91
 20
897.545
 30
0.00000
  70
    32
  0
VERTEX
  8
0
  5
3C9
 10
2211.90
 20
897.481
 30
0.00000
  70
    32
  0
VERTEX
  8
0
  5
3CA
 10
2211.89
 20
897.418
 30
0.00000
  70
    32
  0
VERTEX
  8
0
  5
3CB
 10
2211.88
 20
897.354
 30
0.00000
  70
    32
  0
VERTEX
  8
0
  5
3CC
 10
2211.88
 20
897.290
 30
0.00000
  70
    32
  0
VERTEX
  8
0
  5
3CD
 10
2211.87
 20
897.227
 30
0.00000
  70
    32
  0
VERTEX
  8
0
  5
3CE
 10
2211.87
 20
897.163
 30
0.00000
  70
    32
  0
VERTEX
  8
0
  5
3CF
 10
2211.87
 20
897.099
 30
0.00000
  70
    32
  0
VERTEX
  8
0
  5
3D0
 10
2211.86
 20
897.035
 30
0.00000
  70
    32
  0
VERTEX
  8
0
  5
3D1
 10
2211.86
 20
896.971
 30
0.00000
  70
    32
  0
VERTEX
  8
0
  5
3D2
 10
2211.87
 20
896.908
 30
0.00000
  70
    32
  0
VERTEX
  8
0
  5
3D3
 10
2211.87
 20
896.844
 30
0.00000
  70
    32
  0
VERTEX
  8
0
  5
3D4
 10
2211.87
 20
896.780
 30
0.00000
  70
    32
  0
VERTEX
  8
0
  5
3D5
 10
2211.88
 20
896.716
 30
0.00000
  70
    32
  0
VERTEX
  8
0
  5
3D6
 10
2211.88
 20
896.653
 30
0.00000
  70
    32
  0
VERTEX
  8
0
  5
3D7
 10
2211.89
 20
896.589
 30
0.00000
  70
    32
  0
VERTEX
  8
0
  5
3D8
 10
2211.90
 20
896.525
 30
0.00000
  70
    32
  0
VERTEX
  8
0
  5
3D9
 10
2211.90
 20
896.462
 30
0.00000
  70
    32
  0
VERTEX
  8
0
  5
3DA
 10
2211.91
 20
896.398
 30
0.00000
  70
    32
  0
VERTEX
  8
0
  5
3DB
 10
2211.93
 20
896.335
 30
0.00000
  70
    32
  0
VERTEX
  8
0
  5
3DC
 10
2211.94
 20
896.272
 30
0.00000
  70
    32
  0
VERTEX
  8
0
  5
3DD
 10
2211.95
 20
896.209
 30
0.00000
  70
    32
  0
VERTEX
  8
0
  5
3DE
 10
2211.97
 20
896.145
 30
0.00000
  70
    32
  0
VERTEX
  8
0
  5
3DF
 10
2211.98
 20
896.083
 30
0.00000
  70
    32
  0
VERTEX
  8
0
  5
3E0
 10
2212.00
 20
896.020
 30
0.00000
  70
    32
  0
VERTEX
  8
0
  5
3E1
 10
2212.02
 20
895.957
 30
0.00000
  70
    32
  0
VERTEX
  8
0
  5
3E2
 10
2212.04
 20
895.895
 30
0.00000
  70
    32
  0
VERTEX
  8
0
  5
3E3
 10
2212.06
 20
895.832
 30
0.00000
  70
    32
  0
VERTEX
  8
0
  5
3E4
 10
2212.08
 20
895.770
 30
0.00000
  70
    32
  0
VERTEX
  8
0
  5
3E5
 10
2212.10
 20
895.708
 30
0.00000
  70
    32
  0
VERTEX
  8
0
  5
3E6
 10
2212.12
 20
895.646
 30
0.00000
  70
    32
  0
VERTEX
  8
0
  5
3E7
 10
2212.15
 20
895.585
 30
0.00000
  70
    32
  0
VERTEX
  8
0
  5
3E8
 10
2212.17
 20
895.523
 30
0.00000
  70
    32
  0
VERTEX
  8
0
  5
3E9
 10
2212.20
 20
895.462
 30
0.00000
  70
    32
  0
VERTEX
  8
0
  5
3EA
 10
2212.23
 20
895.401
 30
0.00000
  70
    32
  0
VERTEX
  8
0
  5
3EB
 10
2212.26
 20
895.340
 30
0.00000
  70
    32
  0
VERTEX
  8
0
  5
3EC
 10
2212.29
 20
895.280
 30
0.00000
  70
    32
  0
VERTEX
  8
0
  5
3ED
 10
2212.32
 20
895.219
 30
0.00000
  70
    32
  0
VERTEX
  8
0
  5
3EE
 10
2212.35
 20
895.159
 30
0.00000
  70
    32
  0
VERTEX
  8
0
  5
3EF
 10
2212.38
 20
895.099
 30
0.00000
  70
    32
  0
VERTEX
  8
0
  5
3F0
 10
2212.42
 20
895.040
 30
0.00000
  70
    32
  0
VERTEX
  8
0
  5
3F1
 10
2212.45
 20
894.981
 30
0.00000
  70
    32
  0
VERTEX
  8
0
  5
3F2
 10
2212.49
 20
894.922
 30
0.00000
  70
    32
  0
VERTEX
  8
0
  5
3F3
 10
2212.53
 20
894.863
 30
0.00000
  70
    32
  0
VERTEX
  8
0
  5
3F4
 10
2212.56
 20
894.805
 30
0.00000
  70
    32
  0
VERTEX
  8
0
  5
3F5
 10
2212.60
 20
894.747
 30
0.00000
  70
    32
  0
VERTEX
  8
0
  5
3F6
 10
2212.64
 20
894.689
 30
0.00000
  70
    32
  0
VERTEX
  8
0
  5
3F7
 10
2212.69
 20
894.632
 30
0.00000
  70
    32
  0
VERTEX
  8
0
  5
3F8
 10
2212.73
 20
894.575
 30
0.00000
  70
    32
  0
VERTEX
  8
0
  5
3F9
 10
2212.77
 20
894.518
 30
0.00000
  70
    32
  0
VERTEX
  8
0
  5
3FA
 10
2212.82
 20
894.462
 30
0.00000
  70
    32
  0
VERTEX
  8
0
  5
3FB
 10
2212.86
 20
894.406
 30
0.00000
  70
    32
  0
VERTEX
  8
0
  5
3FC
 10
2212.91
 20
894.350
 30
0.00000
  70
    32
  0
VERTEX
  8
0
  5
3FD
 10
2212.96
 20
894.295
 30
0.00000
  70
    32
  0
VERTEX
  8
0
  5
3FE
 10
2213.00
 20
894.240
 30
0.00000
  70
    32
  0
VERTEX
  8
0
  5
3FF
 10
2213.05
 20
894.186
 30
0.00000
  70
    32
  0
VERTEX
  8
0
  5
400
 10
2213.10
 20
894.132
 30
0.00000
  70
    32
  0
VERTEX
  8
0
  5
401
 10
2213.16
 20
894.078
 30
0.00000
  70
    32
  0
VERTEX
  8
0
  5
402
 10
2213.21
 20
894.025
 30
0.00000
  70
    32
  0
VERTEX
  8
0
  5
403
 10
2213.26
 20
893.972
 30
0.00000
  70
    32
  0
VERTEX
  8
0
  5
404
 10
2213.32
 20
893.920
 30
0.00000
  70
    32
  0
VERTEX
  8
0
  5
405
 10
2213.37
 20
893.868
 30
0.00000
  70
    32
  0
VERTEX
  8
0
  5
406
 10
2213.43
 20
893.816
 30
0.00000
  70
    32
  0
VERTEX
  8
0
  5
407
 10
2213.48
 20
893.765
 30
0.00000
  70
    32
  0
VERTEX
  8
0
  5
408
 10
2213.54
 20
893.715
 30
0.00000
  70
    32
  0
VERTEX
  8
0
  5
409
 10
2213.60
 20
893.664
 30
0.00000
  70
    32
  0
VERTEX
  8
0
  5
40A
 10
2213.66
 20
893.615
 30
0.00000
  70
    32
  0
VERTEX
  8
0
  5
40B
 10
2213.72
 20
893.566
 30
0.00000
  70
    32
  0
VERTEX
  8
0
  5
40C
 10
2213.78
 20
893.517
 30
0.00000
  70
    32
  0
VERTEX
  8
0
  5
40D
 10
2213.84
 20
893.469
 30
0.00000
  70
    32
  0
VERTEX
  8
0
  5
40E
 10
2213.91
 20
893.421
 30
0.00000
  70
    32
  0
VERTEX
  8
0
  5
40F
 10
2213.97
 20
893.374
 30
0.00000
  70
    32
  0
VERTEX
  8
0
  5
410
 10
2214.03
 20
893.327
 30
0.00000
  70
    32
  0
VERTEX
  8
0
  5
411
 10
2214.10
 20
893.281
 30
0.00000
  70
    32
  0
VERTEX
  8
0
  5
412
 10
2214.17
 20
893.236
 30
0.00000
  70
    32
  0
VERTEX
  8
0
  5
413
 10
2214.23
 20
893.191
 30
0.00000
  70
    32
  0
VERTEX
  8
0
  5
414
 10
2214.30
 20
893.146
 30
0.00000
  70
    32
  0
VERTEX
  8
0
  5
415
 10
2214.37
 20
893.102
 30
0.00000
  70
    32
  0
VERTEX
  8
0
  5
416
 10
2214.44
 20
893.059
 30
0.00000
  70
    32
  0
VERTEX
  8
0
  5
417
 10
2214.51
 20
893.016
 30
0.00000
  70
    32
  0
VERTEX
  8
0
  5
418
 10
2214.58
 20
892.974
 30
0.00000
  70
    32
  0
VERTEX
  8
0
  5
419
 10
2214.65
 20
892.932
 30
0.00000
  70
    32
  0
VERTEX
  8
0
  5
41A
 10
2214.72
 20
892.891
 30
0.00000
  70
    32
  0
VERTEX
  8
0
  5
41B
 10
2214.80
 20
892.851
 30
0.00000
  70
    32
  0
VERTEX
  8
0
  5
41C
 10
2214.87
 20
892.811
 30
0.00000
  70
    32
  0
VERTEX
  8
0
  5
41D
 10
2214.95
 20
892.771
 30
0.00000
  70
    32
  0
VERTEX
  8
0
  5
41E
 10
2215.02
 20
892.733
 30
0.00000
  70
    32
  0
VERTEX
  8
0
  5
41F
 10
2215.10
 20
892.695
 30
0.00000
  70
    32
  0
VERTEX
  8
0
  5
420
 10
2215.17
 20
892.657
 30
0.00000
  70
    32
  0
VERTEX
  8
0
  5
421
 10
2215.25
 20
892.620
 30
0.00000
  70
    32
  0
VERTEX
  8
0
  5
422
 10
2215.33
 20
892.584
 30
0.00000
  70
    32
  0
VERTEX
  8
0
  5
423
 10
2215.41
 20
892.548
 30
0.00000
  70
    32
  0
VERTEX
  8
0
  5
424
 10
2215.49
 20
892.513
 30
0.00000
  70
    32
  0
VERTEX
  8
0
  5
425
 10
2215.57
 20
892.479
 30
0.00000
  70
    32
  0
VERTEX
  8
0
  5
426
 10
2215.65
 20
892.445
 30
0.00000
  70
    32
  0
VERTEX
  8
0
  5
427
 10
2215.73
 20
892.412
 30
0.00000
  70
    32
  0
VERTEX
  8
0
  5
428
 10
2215.81
 20
892.380
 30
0.00000
  70
    32
  0
VERTEX
  8
0
  5
429
 10
2215.89
 20
892.348
 30
0.00000
  70
    32
  0
VERTEX
  8
0
  5
42A
 10
2215.97
 20
892.317
 30
0.00000
  70
    32
  0
VERTEX
  8
0
  5
42B
 10
2216.06
 20
892.286
 30
0.00000
  70
    32
  0
VERTEX
  8
0
  5
42C
 10
2216.14
 20
892.257
 30
0.00000
  70
    32
  0
VERTEX
  8
0
  5
42D
 10
2216.23
 20
892.228
 30
0.00000
  70
    32
  0
VERTEX
  8
0
  5
42E
 10
2216.31
 20
892.199
 30
0.00000
  70
    32
  0
VERTEX
  8
0
  5
42F
 10
2216.40
 20
892.172
 30
0.00000
  70
    32
  0
VERTEX
  8
0
  5
430
 10
2216.48
 20
892.144
 30
0.00000
  70
    32
  0
VERTEX
  8
0
  5
431
 10
2216.57
 20
892.118
 30
0.00000
  70
    32
  0
VERTEX
  8
0
  5
432
 10
2216.65
 20
892.093
 30
0.00000
  70
    32
  0
VERTEX
  8
0
  5
433
 10
2216.74
 20
892.068
 30
0.00000
  70
    32
  0
VERTEX
  8
0
  5
434
 10
2216.83
 20
892.043
 30
0.00000
  70
    32
  0
VERTEX
  8
0
  5
435
 10
2216.92
 20
892.020
 30
0.00000
  70
    32
  0
VERTEX
  8
0
  5
436
 10
2217.01
 20
891.997
 30
0.00000
  70
    32
  0
VERTEX
  8
0
  5
437
 10
2217.09
 20
891.975
 30
0.00000
  70
    32
  0
VERTEX
  8
0
  5
438
 10
2217.18
 20
891.954
 30
0.00000
  70
    32
  0
VERTEX
  8
0
  5
439
 10
2217.27
 20
891.933
 30
0.00000
  70
    32
  0
VERTEX
  8
0
  5
43A
 10
2217.36
 20
891.913
 30
0.00000
  70
    32
  0
VERTEX
  8
0
  5
43B
 10
2217.45
 20
891.894
 30
0.00000
  70
    32
  0
VERTEX
  8
0
  5
43C
 10
2217.54
 20
891.875
 30
0.00000
  70
    32
  0
VERTEX
  8
0
  5
43D
 10
2217.64
 20
891.857
 30
0.00000
  70
    32
  0
VERTEX
  8
0
  5
43E
 10
2217.73
 20
891.840
 30
0.00000
  70
    32
  0
VERTEX
  8
0
  5
43F
 10
2217.82
 20
891.824
 30
0.00000
  70
    32
  0
VERTEX
  8
0
  5
440
 10
2217.91
 20
891.809
 30
0.00000
  70
    32
  0
VERTEX
  8
0
  5
441
 10
2218.00
 20
891.794
 30
0.00000
  70
    32
  0
VERTEX
  8
0
  5
442
 10
2218.09
 20
891.780
 30
0.00000
  70
    32
  0
VERTEX
  8
0
  5
443
 10
2218.19
 20
891.766
 30
0.00000
  70
    32
  0
VERTEX
  8
0
  5
444
 10
2218.28
 20
891.754
 30
0.00000
  70
    32
  0
VERTEX
  8
0
  5
445
 10
2218.37
 20
891.742
 30
0.00000
  70
    32
  0
VERTEX
  8
0
  5
446
 10
2218.47
 20
891.731
 30
0.00000
  70
    32
  0
VERTEX
  8
0
  5
447
 10
2218.56
 20
891.721
 30
0.00000
  70
    32
  0
SEQEND
  8
0
  5
448
  0
ARC
  5
2E5
  8
0
 10
2216.478547729841921
 20
897.1231629075397223
 30
0.0
 40
1.900527957756464
 50
34.6897257079913786
 51
144.1304212458412906
  0
LINE
  5
2E6
  8
0
 10
2218.0412494522270208
 20
898.2048143509673537
 30
0.0
 11
2221.9762335140549112
 21
898.1642976930438635
 31
0.0
  0
LINE
  5
2E7
  8
0
 10
2218.3277237140291618
 20
897.5619734563180145
 30
0.0
 11
2221.6500310882970552
 21
897.5380059729020559
 31
0.0
  0
LINE
  5
2E8
  8
0
 10
2228.0170613604409482
 20
902.4296291275808244
 30
0.0
 11
2228.2614262902247901
 21
902.0619315989430334
 31
0.0
  0
ARC
  5
2E9
  8
0
 10
2219.5221772998688721
 20
896.5190384288210907
 30
0.0
 40
10.3488230060633608
 50
31.0784372720939395
 51
32.3850278487980034
  0
ARC
  5
2EC
  8
0
 10
2219.6062492224327798
 20
892.8761140047755589
 30
0.0
 40
1.559262374787689
 50
310.0834601452776269
 51
227.82662169993921
  0
POLYLINE
  5
2ED
  8
0
 10
2220.6102626148085619
 20
891.6831109614608977
 30
0.0
 66
     1
 70
     8
  0
VERTEX
  8
0
  5
449
 10
2220.61
 20
891.683
 30
0.00000
  70
    32
  0
VERTEX
  8
0
  5
44A
 10
2220.75
 20
891.694
 30
0.00000
  70
    32
  0
VERTEX
  8
0
  5
44B
 10
2220.90
 20
891.707
 30
0.00000
  70
    32
  0
VERTEX
  8
0
  5
44C
 10
2221.04
 20
891.721
 30
0.00000
  70
    32
  0
VERTEX
  8
0
  5
44D
 10
2221.18
 20
891.737
 30
0.00000
  70
    32
  0
VERTEX
  8
0
  5
44E
 10
2221.33
 20
891.755
 30
0.00000
  70
    32
  0
VERTEX
  8
0
  5
44F
 10
2221.47
 20
891.775
 30
0.00000
  70
    32
  0
VERTEX
  8
0
  5
450
 10
2221.61
 20
891.796
 30
0.00000
  70
    32
  0
VERTEX
  8
0
  5
451
 10
2221.75
 20
891.819
 30
0.00000
  70
    32
  0
VERTEX
  8
0
  5
452
 10
2221.89
 20
891.844
 30
0.00000
  70
    32
  0
VERTEX
  8
0
  5
453
 10
2222.03
 20
891.871
 30
0.00000
  70
    32
  0
VERTEX
  8
0
  5
454
 10
2222.17
 20
891.899
 30
0.00000
  70
    32
  0
VERTEX
  8
0
  5
455
 10
2222.31
 20
891.929
 30
0.00000
  70
    32
  0
VERTEX
  8
0
  5
456
 10
2222.44
 20
891.961
 30
0.00000
  70
    32
  0
VERTEX
  8
0
  5
457
 10
2222.58
 20
891.994
 30
0.00000
  70
    32
  0
VERTEX
  8
0
  5
458
 10
2222.71
 20
892.029
 30
0.00000
  70
    32
  0
VERTEX
  8
0
  5
459
 10
2222.85
 20
892.066
 30
0.00000
  70
    32
  0
VERTEX
  8
0
  5
45A
 10
2222.98
 20
892.104
 30
0.00000
  70
    32
  0
VERTEX
  8
0
  5
45B
 10
2223.11
 20
892.144
 30
0.00000
  70
    32
  0
VERTEX
  8
0
  5
45C
 10
2223.24
 20
892.186
 30
0.00000
  70
    32
  0
VERTEX
  8
0
  5
45D
 10
2223.37
 20
892.229
 30
0.00000
  70
    32
  0
VERTEX
  8
0
  5
45E
 10
2223.50
 20
892.274
 30
0.00000
  70
    32
  0
VERTEX
  8
0
  5
45F
 10
2223.63
 20
892.320
 30
0.00000
  70
    32
  0
VERTEX
  8
0
  5
460
 10
2223.76
 20
892.368
 30
0.00000
  70
    32
  0
VERTEX
  8
0
  5
461
 10
2223.88
 20
892.418
 30
0.00000
  70
    32
  0
VERTEX
  8
0
  5
462
 10
2224.01
 20
892.469
 30
0.00000
  70
    32
  0
VERTEX
  8
0
  5
463
 10
2224.13
 20
892.521
 30
0.00000
  70
    32
  0
VERTEX
  8
0
  5
464
 10
2224.25
 20
892.575
 30
0.00000
  70
    32
  0
VERTEX
  8
0
  5
465
 10
2224.37
 20
892.631
 30
0.00000
  70
    32
  0
VERTEX
  8
0
  5
466
 10
2224.48
 20
892.688
 30
0.00000
  70
    32
  0
VERTEX
  8
0
  5
467
 10
2224.60
 20
892.746
 30
0.00000
  70
    32
  0
VERTEX
  8
0
  5
468
 10
2224.72
 20
892.806
 30
0.00000
  70
    32
  0
VERTEX
  8
0
  5
469
 10
2224.83
 20
892.867
 30
0.00000
  70
    32
  0
VERTEX
  8
0
  5
46A
 10
2224.94
 20
892.930
 30
0.00000
  70
    32
  0
VERTEX
  8
0
  5
46B
 10
2225.05
 20
892.994
 30
0.00000
  70
    32
  0
VERTEX
  8
0
  5
46C
 10
2225.16
 20
893.059
 30
0.00000
  70
    32
  0
VERTEX
  8
0
  5
46D
 10
2225.26
 20
893.126
 30
0.00000
  70
    32
  0
VERTEX
  8
0
  5
46E
 10
2225.37
 20
893.194
 30
0.00000
  70
    32
  0
VERTEX
  8
0
  5
46F
 10
2225.47
 20
893.263
 30
0.00000
  70
    32
  0
VERTEX
  8
0
  5
470
 10
2225.57
 20
893.333
 30
0.00000
  70
    32
  0
VERTEX
  8
0
  5
471
 10
2225.67
 20
893.405
 30
0.00000
  70
    32
  0
VERTEX
  8
0
  5
472
 10
2225.76
 20
893.478
 30
0.00000
  70
    32
  0
VERTEX
  8
0
  5
473
 10
2225.86
 20
893.552
 30
0.00000
  70
    32
  0
VERTEX
  8
0
  5
474
 10
2225.95
 20
893.627
 30
0.00000
  70
    32
  0
VERTEX
  8
0
  5
475
 10
2226.04
 20
893.703
 30
0.00000
  70
    32
  0
VERTEX
  8
0
  5
476
 10
2226.13
 20
893.780
 30
0.00000
  70
    32
  0
VERTEX
  8
0
  5
477
 10
2226.22
 20
893.859
 30
0.00000
  70
    32
  0
VERTEX
  8
0
  5
478
 10
2226.30
 20
893.938
 30
0.00000
  70
    32
  0
VERTEX
  8
0
  5
479
 10
2226.38
 20
894.019
 30
0.00000
  70
    32
  0
VERTEX
  8
0
  5
47A
 10
2226.46
 20
894.100
 30
0.00000
  70
    32
  0
VERTEX
  8
0
  5
47B
 10
2226.54
 20
894.183
 30
0.00000
  70
    32
  0
VERTEX
  8
0
  5
47C
 10
2226.61
 20
894.266
 30
0.00000
  70
    32
  0
VERTEX
  8
0
  5
47D
 10
2226.69
 20
894.350
 30
0.00000
  70
    32
  0
VERTEX
  8
0
  5
47E
 10
2226.76
 20
894.436
 30
0.00000
  70
    32
  0
VERTEX
  8
0
  5
47F
 10
2226.83
 20
894.522
 30
0.00000
  70
    32
  0
VERTEX
  8
0
  5
480
 10
2226.89
 20
894.609
 30
0.00000
  70
    32
  0
VERTEX
  8
0
  5
481
 10
2226.96
 20
894.696
 30
0.00000
  70
    32
  0
VERTEX
  8
0
  5
482
 10
2227.02
 20
894.785
 30
0.00000
  70
    32
  0
VERTEX
  8
0
  5
483
 10
2227.08
 20
894.874
 30
0.00000
  70
    32
  0
VERTEX
  8
0
  5
484
 10
2227.13
 20
894.964
 30
0.00000
  70
    32
  0
VERTEX
  8
0
  5
485
 10
2227.19
 20
895.054
 30
0.00000
  70
    32
  0
VERTEX
  8
0
  5
486
 10
2227.24
 20
895.146
 30
0.00000
  70
    32
  0
VERTEX
  8
0
  5
487
 10
2227.29
 20
895.238
 30
0.00000
  70
    32
  0
VERTEX
  8
0
  5
488
 10
2227.33
 20
895.330
 30
0.00000
  70
    32
  0
VERTEX
  8
0
  5
489
 10
2227.38
 20
895.423
 30
0.00000
  70
    32
  0
VERTEX
  8
0
  5
48A
 10
2227.42
 20
895.516
 30
0.00000
  70
    32
  0
VERTEX
  8
0
  5
48B
 10
2227.46
 20
895.611
 30
0.00000
  70
    32
  0
VERTEX
  8
0
  5
48C
 10
2227.49
 20
895.705
 30
0.00000
  70
    32
  0
VERTEX
  8
0
  5
48D
 10
2227.53
 20
895.800
 30
0.00000
  70
    32
  0
VERTEX
  8
0
  5
48E
 10
2227.56
 20
895.895
 30
0.00000
  70
    32
  0
VERTEX
  8
0
  5
48F
 10
2227.59
 20
895.991
 30
0.00000
  70
    32
  0
VERTEX
  8
0
  5
490
 10
2227.61
 20
896.087
 30
0.00000
  70
    32
  0
VERTEX
  8
0
  5
491
 10
2227.64
 20
896.183
 30
0.00000
  70
    32
  0
VERTEX
  8
0
  5
492
 10
2227.66
 20
896.280
 30
0.00000
  70
    32
  0
VERTEX
  8
0
  5
493
 10
2227.68
 20
896.377
 30
0.00000
  70
    32
  0
VERTEX
  8
0
  5
494
 10
2227.69
 20
896.474
 30
0.00000
  70
    32
  0
VERTEX
  8
0
  5
495
 10
2227.71
 20
896.571
 30
0.00000
  70
    32
  0
VERTEX
  8
0
  5
496
 10
2227.72
 20
896.668
 30
0.00000
  70
    32
  0
VERTEX
  8
0
  5
497
 10
2227.72
 20
896.766
 30
0.00000
  70
    32
  0
VERTEX
  8
0
  5
498
 10
2227.73
 20
896.863
 30
0.00000
  70
    32
  0
VERTEX
  8
0
  5
499
 10
2227.73
 20
896.961
 30
0.00000
  70
    32
  0
VERTEX
  8
0
  5
49A
 10
2227.73
 20
897.059
 30
0.00000
  70
    32
  0
VERTEX
  8
0
  5
49B
 10
2227.73
 20
897.156
 30
0.00000
  70
    32
  0
VERTEX
  8
0
  5
49C
 10
2227.72
 20
897.254
 30
0.00000
  70
    32
  0
VERTEX
  8
0
  5
49D
 10
2227.71
 20
897.351
 30
0.00000
  70
    32
  0
VERTEX
  8
0
  5
49E
 10
2227.70
 20
897.448
 30
0.00000
  70
    32
  0
VERTEX
  8
0
  5
49F
 10
2227.69
 20
897.546
 30
0.00000
  70
    32
  0
VERTEX
  8
0
  5
4A0
 10
2227.67
 20
897.643
 30
0.00000
  70
    32
  0
VERTEX
  8
0
  5
4A1
 10
2227.66
 20
897.739
 30
0.00000
  70
    32
  0
VERTEX
  8
0
  5
4A2
 10
2227.63
 20
897.836
 30
0.00000
  70
    32
  0
VERTEX
  8
0
  5
4A3
 10
2227.61
 20
897.932
 30
0.00000
  70
    32
  0
VERTEX
  8
0
  5
4A4
 10
2227.58
 20
898.028
 30
0.00000
  70
    32
  0
VERTEX
  8
0
  5
4A5
 10
2227.55
 20
898.124
 30
0.00000
  70
    32
  0
VERTEX
  8
0
  5
4A6
 10
2227.52
 20
898.219
 30
0.00000
  70
    32
  0
VERTEX
  8
0
  5
4A7
 10
2227.49
 20
898.314
 30
0.00000
  70
    32
  0
VERTEX
  8
0
  5
4A8
 10
2227.45
 20
898.408
 30
0.00000
  70
    32
  0
VERTEX
  8
0
  5
4A9
 10
2227.41
 20
898.502
 30
0.00000
  70
    32
  0
VERTEX
  8
0
  5
4AA
 10
2227.37
 20
898.596
 30
0.00000
  70
    32
  0
VERTEX
  8
0
  5
4AB
 10
2227.33
 20
898.689
 30
0.00000
  70
    32
  0
VERTEX
  8
0
  5
4AC
 10
2227.28
 20
898.781
 30
0.00000
  70
    32
  0
VERTEX
  8
0
  5
4AD
 10
2227.23
 20
898.873
 30
0.00000
  70
    32
  0
VERTEX
  8
0
  5
4AE
 10
2227.18
 20
898.964
 30
0.00000
  70
    32
  0
VERTEX
  8
0
  5
4AF
 10
2227.12
 20
899.054
 30
0.00000
  70
    32
  0
VERTEX
  8
0
  5
4B0
 10
2227.07
 20
899.144
 30
0.00000
  70
    32
  0
VERTEX
  8
0
  5
4B1
 10
2227.01
 20
899.233
 30
0.00000
  70
    32
  0
VERTEX
  8
0
  5
4B2
 10
2226.95
 20
899.322
 30
0.00000
  70
    32
  0
VERTEX
  8
0
  5
4B3
 10
2226.88
 20
899.409
 30
0.00000
  70
    32
  0
VERTEX
  8
0
  5
4B4
 10
2226.82
 20
899.496
 30
0.00000
  70
    32
  0
VERTEX
  8
0
  5
4B5
 10
2226.75
 20
899.582
 30
0.00000
  70
    32
  0
VERTEX
  8
0
  5
4B6
 10
2226.68
 20
899.667
 30
0.00000
  70
    32
  0
VERTEX
  8
0
  5
4B7
 10
2226.60
 20
899.751
 30
0.00000
  70
    32
  0
VERTEX
  8
0
  5
4B8
 10
2226.53
 20
899.834
 30
0.00000
  70
    32
  0
VERTEX
  8
0
  5
4B9
 10
2226.45
 20
899.917
 30
0.00000
  70
    32
  0
VERTEX
  8
0
  5
4BA
 10
2226.37
 20
899.998
 30
0.00000
  70
    32
  0
VERTEX
  8
0
  5
4BB
 10
2226.29
 20
900.078
 30
0.00000
  70
    32
  0
VERTEX
  8
0
  5
4BC
 10
2226.20
 20
900.158
 30
0.00000
  70
    32
  0
VERTEX
  8
0
  5
4BD
 10
2226.12
 20
900.236
 30
0.00000
  70
    32
  0
VERTEX
  8
0
  5
4BE
 10
2226.03
 20
900.313
 30
0.00000
  70
    32
  0
VERTEX
  8
0
  5
4BF
 10
2225.94
 20
900.389
 30
0.00000
  70
    32
  0
VERTEX
  8
0
  5
4C0
 10
2225.84
 20
900.464
 30
0.00000
  70
    32
  0
VERTEX
  8
0
  5
4C1
 10
2225.75
 20
900.538
 30
0.00000
  70
    32
  0
VERTEX
  8
0
  5
4C2
 10
2225.65
 20
900.611
 30
0.00000
  70
    32
  0
VERTEX
  8
0
  5
4C3
 10
2225.55
 20
900.682
 30
0.00000
  70
    32
  0
VERTEX
  8
0
  5
4C4
 10
2225.45
 20
900.752
 30
0.00000
  70
    32
  0
VERTEX
  8
0
  5
4C5
 10
2225.35
 20
900.821
 30
0.00000
  70
    32
  0
VERTEX
  8
0
  5
4C6
 10
2225.25
 20
900.889
 30
0.00000
  70
    32
  0
VERTEX
  8
0
  5
4C7
 10
2225.14
 20
900.955
 30
0.00000
  70
    32
  0
VERTEX
  8
0
  5
4C8
 10
2225.03
 20
901.020
 30
0.00000
  70
    32
  0
VERTEX
  8
0
  5
4C9
 10
2224.92
 20
901.084
 30
0.00000
  70
    32
  0
SEQEND
  8
0
  5
4CA
  0
ENDSEC
  0
EOF
